<?xml version="1.0" encoding="UTF-8"?>
<svg height="16px" viewBox="0 0 16 16" width="16px" xmlns="http://www.w3.org/2000/svg">
    <path d="M 5.231185,15.935336 C 4.562843,15.760676 3.666693,14.962223 2.931131,13.886033 2.11286,12.688831 1.566679,11.263785 1.380876,9.8412466 1.317266,9.3542263 1.298716,8.6293429 1.338196,8.1733765 1.438204,7.0183557 1.774301,6.0980192 2.365114,5.3613637 2.98106,4.5933714 3.94829,4.037205 4.970926,3.8629969 c 0.525541,-0.089527 0.99648,-0.013034 2.081222,0.338045 0.829769,0.2685564 1.015341,0.3124598 1.321404,0.3126217 0.316383,1.676e-4 0.464027,-0.035819 1.474494,-0.3593878 0.712898,-0.2282818 1.060389,-0.3045327 1.450322,-0.3182476 0.205186,-0.00722 0.308203,-0.00314 0.451212,0.017875 0.861629,0.126592 1.643768,0.5037042 2.192435,1.0570943 0.176685,0.1782061 0.409683,0.4673857 0.487978,0.6056418 0.0063,0.011194 -0.04196,0.04767 -0.124379,0.093925 -0.635824,0.356856 -1.178006,1.0222538 -1.425144,1.7490197 -0.133297,0.3919917 -0.186028,0.7180655 -0.186328,1.1522001 -4.24e-4,0.6136354 0.107016,1.0877646 0.368818,1.6275829 0.357175,0.736471 0.991538,1.329202 1.699432,1.5879 0.06612,0.02416 0.12273,0.05145 0.125791,0.06063 0.01524,0.04571 -0.296649,0.761352 -0.507061,1.163481 -0.762262,1.456806 -1.892362,2.663442 -2.770622,2.958264 -0.155371,0.05216 -0.344449,0.06527 -0.577203,0.04003 C 10.646226,15.907711 10.35285,15.82546 9.622109,15.554038 8.887016,15.281 8.646806,15.22593 8.276861,15.245631 c -0.279308,0.01487 -0.568328,0.08764 -0.982996,0.247497 -0.887883,0.342279 -1.284989,0.448217 -1.740386,0.464292 -0.168753,0.006 -0.231426,0.0017 -0.322294,-0.02208 z M 7.942947,3.9150705 C 7.915117,3.8497575 7.921197,3.3602167 7.952447,3.1487336 8.048107,2.5016607 8.263096,1.95693 8.594813,1.5211677 8.860643,1.171959 9.317826,0.80911504 9.791627,0.5713143 c 0.33483,-0.168051 0.781966,-0.32331311 1.077766,-0.37424019 0.189213,-0.0325761 0.245171,-0.0318107 0.260346,0.003561 0.02594,0.0604534 0.02677,0.41736249 0.0015,0.63580514 C 11.056759,1.479777 10.865109,2.0273625 10.54864,2.5010068 10.231283,2.9759807 9.809961,3.3266769 9.209157,3.6159542 8.850252,3.7887612 8.267764,3.9593859 8.036731,3.9593859 c -0.06641,0 -0.07706,-0.00503 -0.0938,-0.044315 z" fill="#2e3434" />
</svg>
