<?xml version="1.0" encoding="UTF-8" standalone="no"?>
<!-- Generator: Adobe Illustrator 9.0, SVG Export Plug-In  -->

<svg
   width="48"
   height="48"
   viewBox="0 0 48 48"
   xml:space="preserve"
   id="svg2"
   sodipodi:version="0.32"
   inkscape:version="1.2.2 (b0a8486541, 2022-12-01)"
   sodipodi:docname="device-printer.svg"
   version="1.0"
   xmlns:inkscape="http://www.inkscape.org/namespaces/inkscape"
   xmlns:sodipodi="http://sodipodi.sourceforge.net/DTD/sodipodi-0.dtd"
   xmlns="http://www.w3.org/2000/svg"
   xmlns:svg="http://www.w3.org/2000/svg"
   xmlns:rdf="http://www.w3.org/1999/02/22-rdf-syntax-ns#"
   xmlns:cc="http://creativecommons.org/ns#"
   xmlns:dc="http://purl.org/dc/elements/1.1/"><metadata
   id="metadata31"><rdf:RDF><cc:Work
       rdf:about=""><dc:format>image/svg+xml</dc:format><dc:type
         rdf:resource="http://purl.org/dc/dcmitype/StillImage" /></cc:Work></rdf:RDF></metadata><defs
   id="defs29" /><sodipodi:namedview
   inkscape:window-height="2140"
   inkscape:window-width="1916"
   inkscape:pageshadow="2"
   inkscape:pageopacity="0.0"
   borderopacity="1.0"
   bordercolor="#666666"
   pagecolor="#ffffff"
   id="base"
   showgrid="true"
   inkscape:grid-bbox="true"
   inkscape:grid-points="true"
   inkscape:zoom="18.0032"
   inkscape:cx="28.106114"
   inkscape:cy="34.52164"
   inkscape:window-x="1920"
   inkscape:window-y="0"
   inkscape:current-layer="svg2"
   inkscape:showpageshadow="2"
   inkscape:pagecheckerboard="0"
   inkscape:deskcolor="#d1d1d1"
   inkscape:window-maximized="0" />
	<path
   id="path13"
   style="fill:#2e3436;fill-opacity:1;fill-rule:nonzero;stroke:none;stroke-width:0;stroke-linejoin:round;stroke-miterlimit:4;stroke-dasharray:none"
   d="M 12,4 C 9.000009,4 8,6.000006 8,8 V 24 H 5 c -0.399999,0 -1,0.6 -1,1 v 14 c 0,0.4 0.600001,1 1,1 h 2 v 2 c 0,0.4 0.600001,1 1,1 h 32 c 0.4,0 1,-0.6 1,-1 v -2 h 2 c 0.4,0 1,-0.6 1,-1 V 25 c 0,-0.4 -0.6,-1 -1,-1 H 40 V 8 C 40,6.000006 38.999991,4 36,4 Z m 1,4 h 22 c 0.999998,0 1,1 1,1 V 24 H 12 V 9 c 0,0 2e-6,-1 1,-1 z m -2.015625,26.898438 h 25.972656 v 4.082031 H 10.984375 Z" />
	
</svg>
