<?xml version="1.0" encoding="UTF-8"?>
<svg height="16px" viewBox="0 0 16 16" width="16px" xmlns="http://www.w3.org/2000/svg">
    <path d="M 15.571773,0.58688515 C 16.388799,1.4039114 14.121629,4.9976201 13.735726,5.3835219 13.352839,5.7664086 12.379041,5.4136705 11.559,4.5936295 10.741974,3.7766033 10.389236,2.8028046 10.772123,2.4199179 11.155009,2.0370312 14.751734,-0.23315588 15.571773,0.58688515 Z M 4.0972303,1.452149 C 2.8460649,0.74365772 1.0703144,-0.04623468 0.50352143,0.5175435 -0.06930131,1.0903662 0.7477248,2.9083246 1.4622458,4.1594902 2.1013954,3.0530378 3.0088672,2.1184323 4.0972303,1.452149 Z M 14.320609,5.1001253 c 0.114559,0.3889165 0.09648,0.7115062 -0.09346,0.8984275 C 13.793009,6.4357065 12.6142,5.9714185 11.55297,4.9614419 11.477599,4.8921003 11.405242,4.8257734 11.335901,4.7534169 10.953014,4.37053 10.651529,3.9635245 10.461593,3.5866674 10.090765,2.9203841 9.9973046,2.3324871 10.277686,2.0521054 10.431444,1.8983478 10.675647,1.8561398 10.974118,1.9104071 11.170084,1.786798 11.399212,1.6481146 11.652461,1.5094312 10.591231,0.95771245 9.4154372,0.67130111 8.2245689,0.67130111 c -4.1032197,0 -7.42559153,3.32538669 -7.42559153,7.42559189 0,4.103219 3.32237183,7.428605 7.42559153,7.428605 4.1032191,0 7.4286061,-3.325386 7.4286061,-7.428605 0,-1.3235221 -0.349724,-2.5656432 -0.95571,-3.641947 -0.117576,0.2170697 -0.244203,0.4311245 -0.376856,0.6451793 z" fill="#2e3434" />
</svg>
