<?xml version="1.0" encoding="UTF-8"?>
<svg height="16px" viewBox="0 0 16 16" width="16px" xmlns="http://www.w3.org/2000/svg">
    <path d="M 14.354433,15.162452 C 13.394894,15.025517 12.660453,14.922474 9.6091421,14.496685 8.4679268,14.337436 7.5159367,14.203053 7.4936086,14.198056 l -0.040597,-0.0091 v -2.88786 -2.8878591 l 3.0808304,0.01068 c 1.694457,0.00587 3.456349,0.015554 3.915316,0.021512 l 0.834486,0.010833 v 3.4170011 c 0,3.243062 -0.0016,3.416892 -0.03158,3.414885 -0.01737,-0.0012 -0.421302,-0.05773 -0.897635,-0.12571 z M 6.2441357,14.026034 C 5.7179535,13.950018 4.8765735,13.831749 2.5363136,13.504842 1.6828831,13.385628 0.9541451,13.28318 0.91689594,13.277182 l -0.0677258,-0.01091 0.004575,-2.438138 0.004575,-2.4381386 2.03885106,0.0041 c 1.1213681,0.00226 2.4468468,0.00929 2.9455083,0.015618 l 0.9066572,0.011513 V 11.26033 c 0,1.561507 -0.00609,2.838129 -0.013532,2.836937 -0.00744,-0.0012 -0.2286941,-0.03325 -0.4916698,-0.07124 z M 0.8537446,5.3562625 0.85832117,2.9402 1.1199437,2.9010768 C 1.263836,2.8795592 1.7428758,2.8086836 2.1844765,2.7435757 2.6260772,2.6784676 3.8155574,2.5031115 4.8277657,2.353895 5.8399741,2.2046785 6.686413,2.0784365 6.7087411,2.073357 l 0.040597,-0.00924 V 4.9062269 7.7483321 H 5.4532318 c -0.7128581,0 -2.0403962,0.0054 -2.9500847,0.011997 L 0.84916801,7.772325 Z M 7.453012,4.8503258 V 1.9651505 L 10.858615,1.4618861 C 12.731697,1.1850907 14.491559,0.92486512 14.76942,0.883607 l 0.505202,-0.0750148 0.0046,3.4457664 c 0.0025,1.8951714 0.0025,3.4477376 0,3.4501468 -0.0025,0.00241 -1.764419,0.010369 -3.915362,0.017688 l -3.910805,0.013308 z" fill="#2e3434" />
</svg>
