<?xml version="1.0" encoding="UTF-8"?>
<svg height="16px" viewBox="0 0 16 16" width="16px" xmlns="http://www.w3.org/2000/svg">
  <path
     d="m 3.5113955,0.2896518 c -1.1392602,0 -1.5190182,0.7595114 -1.5190182,1.5190182 V 7.8847426 H 0.85311363 c -0.15190141,0 -0.37975454,0.2278531 -0.37975454,0.3797545 v 5.3165639 c 0,0.151902 0.22785313,0.379755 0.37975454,0.379755 H 1.6126227 v 0.759509 c 0,0.151902 0.2278532,0.379754 0.3797546,0.379754 H 14.144523 c 0.151901,0 0.379754,-0.227852 0.379754,-0.379754 v -0.759509 h 0.759509 c 0.151903,0 0.379755,-0.227853 0.379755,-0.379755 V 8.2644971 c 0,-0.1519014 -0.227852,-0.3797545 -0.379755,-0.3797545 H 14.144523 V 1.80867 c 0,-0.7595068 -0.379758,-1.5190182 -1.519019,-1.5190182 z M 3.8911501,1.80867 H 12.24575 c 0.379754,0 0.379754,0.3797545 0.379754,0.3797545 V 7.8847426 H 3.5113955 V 2.1884245 c 0,0 8e-7,-0.3797545 0.3797546,-0.3797545 z M 3.1257072,12.023474 h 9.8632348 v 1.55017 H 3.1257072 Z"
     fill="#2e3434" />
</svg>
