<?xml version="1.0" encoding="UTF-8"?>
<svg height="16px" viewBox="0 0 16 16" width="16px" xmlns="http://www.w3.org/2000/svg">
    <path d="m 10.758762,15.808004 c -0.265927,-0.05195 -0.480038,-0.213674 -0.652679,-0.492986 l -0.08596,-0.139073 -0.09158,-0.01905 c -0.250604,-0.05211 -0.663691,-0.11378 -0.920435,-0.137402 -0.62569,-0.05757 -1.5092542,1.92e-4 -2.2807421,0.149095 l -0.1815027,0.03503 -0.058264,0.09963 c -0.032045,0.0548 -0.1004459,0.139038 -0.1520014,0.187206 -0.2457882,0.22964 -0.5405428,0.288982 -0.984363,0.198178 C 5.1290733,15.643179 4.853735,15.557227 4.3732814,15.383348 3.6494743,15.121396 3.4477891,15.06669 2.9505192,14.997426 2.5528472,14.942035 2.3700026,14.90538 2.1603993,14.839031 1.8858089,14.752111 1.7113527,14.635337 1.6481598,14.496157 c -0.049856,-0.109806 -0.039389,-0.196648 0.061815,-0.512849 0.1296043,-0.404935 0.1461583,-0.488613 0.1361467,-0.688203 -0.00617,-0.123083 -0.020762,-0.206145 -0.05753,-0.327568 -0.093661,-0.30931 -0.078937,-0.527785 0.045065,-0.668659 0.088634,-0.100693 0.21468,-0.161363 0.4461253,-0.214732 0.4983838,-0.114923 0.6834613,-0.196854 0.8726611,-0.386316 0.086039,-0.08616 0.1359936,-0.153609 0.190067,-0.256637 0.094739,-0.18051 0.1898014,-0.300528 0.2888994,-0.364741 0.055956,-0.03626 0.076554,-0.05849 0.069981,-0.07554 -0.032345,-0.0839 -0.053264,-0.233038 -0.053368,-0.380491 C 3.6478524,10.381242 3.6849682,10.238514 3.8172306,9.9697295 3.9511659,9.6975451 4.0030083,9.5666663 4.2283926,8.9317289 4.4640578,8.2678291 4.5244786,8.1152278 4.6700485,7.8162655 4.8103752,7.5280713 4.9222531,7.3623872 5.4755694,6.6233394 5.9640738,5.9708587 5.9942925,5.924892 6.032172,5.7766715 6.1148581,5.4531258 6.114633,4.7598952 6.0315384,3.8268279 5.9869705,3.3263725 5.9833036,2.6966985 6.0233837,2.4265028 6.1411276,1.6327451 6.4221795,1.224491 7.0580664,0.92352932 7.8675398,0.54041012 8.797795,0.56606381 9.450975,0.98951869 9.875973,1.2650438 10.15743,1.6482703 10.362919,2.2312023 c 0.174304,0.4944653 0.240138,0.9336055 0.271744,1.812628 0.02798,0.7781559 0.07443,1.0910416 0.211621,1.4253143 0.0759,0.1849316 0.146698,0.3001686 0.423571,0.6894184 1.236475,1.738333 1.803012,2.7045486 1.957601,3.3386438 0.06236,0.2557855 0.07711,0.4288993 0.06771,0.7949032 -0.0086,0.335327 -0.02538,0.474044 -0.09813,0.811707 l -0.04073,0.189042 0.07908,0.08873 c 0.08215,0.09217 0.18114,0.267042 0.226868,0.400773 0.01688,0.04937 0.03111,0.162148 0.03924,0.310974 0.01912,0.349989 0.07456,0.487143 0.271317,0.6712 0.106239,0.09938 0.232137,0.177902 0.438099,0.273236 0.335917,0.155486 0.426711,0.47306 0.220808,0.772329 -0.08822,0.128223 -0.22612,0.223444 -0.685141,0.473094 -1.112208,0.604901 -1.491387,0.84645 -1.844811,1.175204 -0.08284,0.07706 -0.191811,0.165128 -0.242157,0.195712 -0.253794,0.154172 -0.598235,0.213014 -0.900851,0.153897 z m 0.588717,-0.512178 c 0.220676,-0.07303 0.482325,-0.252645 0.796142,-0.546531 0.273493,-0.256124 0.399756,-0.335334 1.204173,-0.755431 0.482018,-0.251728 0.651032,-0.352693 0.679524,-0.405932 0.0087,-0.0163 0.01586,-0.05585 0.01586,-0.08788 0,-0.04995 -0.01158,-0.06943 -0.08134,-0.136835 -0.04473,-0.04323 -0.140595,-0.112561 -0.213023,-0.154074 -0.07243,-0.04151 -0.178182,-0.102375 -0.23501,-0.135251 -0.163272,-0.09445 -0.26816,-0.236762 -0.346311,-0.469856 -0.03289,-0.0981 -0.04385,-0.168574 -0.05351,-0.344072 -0.01124,-0.204291 -0.01555,-0.226725 -0.05786,-0.301623 -0.02514,-0.0445 -0.0599,-0.09034 -0.07725,-0.101852 -0.02954,-0.01961 -0.03575,-0.01381 -0.09843,0.0919 -0.167917,0.283211 -0.276222,0.39107 -0.50272,0.500646 -0.348018,0.168367 -0.708858,0.20564 -0.952791,0.09842 -0.100903,-0.04435 -0.206087,-0.155098 -0.261282,-0.275097 -0.05442,-0.11831 -0.09505,-0.327866 -0.09505,-0.490222 0,-0.108054 -0.0015,-0.112647 -0.0394,-0.11989 -0.06938,-0.01326 -0.176259,0.01862 -0.203913,0.06082 -0.03769,0.05753 -0.04179,0.233345 -0.01375,0.58942 0.01357,0.172278 0.0246,0.37097 0.02452,0.441538 -2.99e-4,0.257398 -0.06797,0.734342 -0.186187,1.312247 -0.09185,0.448996 -0.08339,0.687883 0.03248,0.917418 0.05316,0.105319 0.160277,0.228054 0.244395,0.280042 0.120413,0.07442 0.260527,0.08511 0.420715,0.0321 z M 5.7315807,15.267071 C 5.7598013,15.25368 5.8386968,15.190878 5.9069041,15.127512 6.2367396,14.821088 6.287657,14.52324 6.0774518,14.12987 6.0020696,13.988802 5.9420378,13.905972 5.7813937,13.721376 5.6239452,13.540451 5.386949,13.182361 5.0107626,12.556985 4.6288139,11.92203 4.5873596,11.862271 4.3914701,11.664236 4.2195726,11.490456 4.1013982,11.41 3.9945052,11.39397 c -0.132644,-0.01989 -0.2123155,0.06217 -0.3855651,0.397145 -0.1210925,0.234129 -0.2121323,0.357301 -0.3066399,0.414868 -0.073269,0.04463 -0.1724964,0.0748 -0.491214,0.149343 -0.3403103,0.07959 -0.4509313,0.118837 -0.5241595,0.185946 -0.048522,0.04447 -0.055256,0.06028 -0.061307,0.143935 -0.00457,0.06312 0.0051,0.149062 0.02943,0.261745 0.027598,0.1278 0.03601,0.213897 0.035313,0.361421 -8.927e-4,0.188956 -0.0029,0.200051 -0.082646,0.457031 -0.062255,0.200613 -0.083583,0.2949 -0.089503,0.395677 -0.00739,0.125887 -0.00579,0.134662 0.033135,0.180919 0.066568,0.07911 0.2010137,0.115669 0.7874348,0.214108 0.7245648,0.121629 0.7969437,0.140197 1.2058373,0.309337 0.7105125,0.293906 1.1381873,0.422411 1.4140493,0.424884 0.080462,7.22e-4 0.1389573,-0.0071 0.172909,-0.02326 z M 7.7687008,14.19086 C 8.095919,14.16788 8.466601,14.11884 8.64403,14.075046 c 0.384586,-0.09492 0.778056,-0.301342 1.121433,-0.588329 0.135344,-0.113117 0.459319,-0.439107 0.503683,-0.506816 0.0201,-0.03067 0.0269,-0.134807 0.03979,-0.609521 0.01567,-0.576776 0.03445,-0.861176 0.06442,-0.975336 0.01946,-0.07414 0.07881,-0.141185 0.153016,-0.17287 0.07188,-0.03069 0.249193,-0.04263 0.361405,-0.02433 0.109407,0.01784 0.102488,0.02955 0.156775,-0.265215 0.05859,-0.318113 0.0755,-0.559349 0.06615,-0.9438396 -0.0091,-0.3750452 -0.03242,-0.5611413 -0.105979,-0.846071 C 10.851465,8.5490389 10.369659,7.312985 9.856619,6.1972943 9.695083,5.8460058 9.464175,5.3852576 9.396589,5.2793609 c -0.04131,-0.064726 -0.05347,-0.07359 -0.10095,-0.07359 -0.109339,0 -0.301607,0.091644 -0.845266,0.4028944 C 7.8203515,5.9693592 7.6229015,6.0581301 7.4519686,6.0575347 7.2163356,6.0567136 6.9185977,5.8796252 6.5680285,5.5317847 L 6.3976105,5.362693 6.3967352,5.5669712 C 6.3960179,5.7343942 6.3884066,5.8012057 6.3545512,5.9372894 6.2627377,6.3063391 6.1211072,6.5973918 5.8852485,6.9017132 5.7543624,7.0705915 5.6679112,7.2692492 5.4381341,7.9291447 5.249003,8.4723092 5.1710888,8.6607013 5.0427126,8.8852512 4.7604957,9.3788923 4.6209479,9.9474046 4.6436496,10.511017 c 0.018515,0.459664 0.1167141,0.6776 0.4470361,0.992121 0.1311858,0.12491 0.2695937,0.238295 0.8576416,0.702585 0.2479619,0.195777 0.4714042,0.42267 0.5258669,0.533987 0.1335267,0.272919 0.010503,0.560593 -0.2858279,0.668369 l -0.087934,0.03198 0.3112609,0.359507 c 0.1711935,0.197729 0.3259626,0.363815 0.3439314,0.369079 0.1184262,0.03469 0.6647632,0.04667 1.0130764,0.02221 z M 7.6206326,5.6933672 C 7.7442474,5.6611692 8.012324,5.5234678 8.398547,5.2937794 8.576167,5.1881482 8.777266,5.0712841 8.845433,5.0340814 9.001506,4.9489034 9.039089,4.9097287 9.039089,4.832227 9.039089,4.700098 8.924338,4.6271191 8.388403,4.4184071 7.9475275,4.2467148 7.7134237,4.1677707 7.6451563,4.1677707 c -0.1214198,0 -0.3419808,0.1263222 -0.5750006,0.3293209 -0.071668,0.062435 -0.2069942,0.1748307 -0.3007241,0.2497686 -0.09373,0.074938 -0.1766483,0.1494475 -0.1842634,0.165577 -0.019914,0.04218 0.02388,0.1462312 0.1006725,0.2391931 0.09051,0.1095681 0.2261727,0.2235071 0.4321732,0.3629696 0.2070095,0.1401456 0.2664302,0.1729074 0.340836,0.1879209 0.029823,0.00602 0.057988,0.011743 0.062588,0.012723 0.0046,9.792e-4 0.049238,-0.00886 0.099195,-0.021877 z M 6.761914,4.3304424 6.8715247,4.2374871 6.7931375,4.2275321 C 6.6004812,4.203065 6.4603505,3.9780782 6.4616098,3.695248 6.462891,3.4074194 6.6425283,3.2308653 6.8344699,3.3287865 7.0364591,3.4318338 7.1455348,3.8012589 7.0472802,4.049546 7.0403602,4.067037 7.0745312,4.047306 7.1335922,3.999716 7.1873652,3.956385 7.2618682,3.908497 7.2991531,3.8932987 7.3835541,3.8588947 7.3894661,3.8400477 7.3879921,3.6100386 7.3861537,3.323183 7.3029293,3.0864014 7.1480564,2.9273993 7.037637,2.8140358 6.9639645,2.7817241 6.8159092,2.7817241 c -0.1480552,0 -0.2217277,0.032312 -0.3321471,0.1456752 -0.2938103,0.3016437 -0.3283809,0.9114352 -0.073194,1.2910577 0.058584,0.08715 0.2031796,0.2180432 0.2305825,0.2087307 0.00613,-0.00208 0.060477,-0.04562 0.1207634,-0.096745 z M 9.145842,4.2181215 C 9.332869,4.0292371 9.416442,3.8154183 9.41682,3.52483 9.417073,3.3311507 9.39112,3.2118403 9.314269,3.0534265 9.249599,2.920112 9.081191,2.7489315 8.953881,2.6870992 8.869241,2.6459912 8.846307,2.6419432 8.697534,2.6418532 8.54026,2.6417602 8.529819,2.6438932 8.418668,2.6989642 8.350558,2.7327092 8.27339,2.7867212 8.230529,2.8306508 8.021506,3.0448847 7.9197424,3.3891604 7.9749637,3.6952471 c 0.038981,0.2160688 0.045078,0.224131 0.2199343,0.2908493 0.08357,0.031887 0.15407,0.055854 0.156665,0.053259 0.0026,-0.00259 -0.0055,-0.038616 -0.01795,-0.080047 C 8.259623,3.7134671 8.350803,3.4199058 8.533726,3.314988 8.717622,3.2095136 8.910515,3.292943 9.018888,3.5248291 c 0.03862,0.08263 0.04341,0.1101638 0.0431,0.2478807 -3.07e-4,0.1375495 -0.0054,0.1658866 -0.04513,0.2526559 -0.02838,0.061948 -0.07,0.1199297 -0.113661,0.158362 l -0.06888,0.060632 0.08302,0.037899 c 0.04566,0.020844 0.09246,0.03847 0.103989,0.039168 0.01153,6.987e-4 0.06756,-0.045789 0.124516,-0.1033052 z" fill="#2e3434" />
</svg>
