<?xml version="1.0" encoding="UTF-8"?>
<svg height="16px" viewBox="0 0 16 16" width="16px" xmlns="http://www.w3.org/2000/svg">
  <path
     d="m 6.1535347,2.7244834 h 3.7861344 m 3.0756239,0 h 0.363587 c 0.629194,0 1.136054,0.5068604 1.136054,1.1360677 v 9.1779979 c 0,0.629207 -0.50686,1.136068 -1.136068,1.136068 H 2.6741844 c -0.6292074,0 -1.136068,-0.506861 -1.136068,-1.136068 V 3.8605511 c 0,-0.6292073 0.5068606,-1.1360677 1.136068,-1.1360677 H 3.0886939 L 3.0686523,1.5794701 m 3.0848824,1.1450133 0.00252,-1.1450133 h 3.7825024 l 0.0011,1.1450133 M 3.0686531,1.5794701 H 2.6152937 c -1.2310579,0 -2.22219063,0.9911327 -2.22219063,2.2221907 v 9.2957782 c 0,1.231058 0.99113273,2.222191 2.22219063,2.222191 H 13.437757 c 1.231058,0 2.222191,-0.991133 2.222191,-2.222191 V 3.8016608 c 0,-1.231058 -0.991133,-2.2221907 -2.222191,-2.2221907 H 13.02915 l -0.01386,1.1450133"
     fill="#2e3434" />
  <rect
     width="1.2389985" height="3.4375429" x="3.9719863" y="0.43195412" ry="0.35031039"
     fill="#2e3434" />
  <path
     d="M 4.5914854,5.0145101 V 12.647932"
     fill="none" stroke-width="0.76" stroke="#2e3434" />
  <path
     d="M 11.461565,5.0145101 V 12.647932"
     fill="none" stroke-width="0.76" stroke="#2e3434" />
  <path
     d="M 8.0265251,5.0145101 V 12.647932"
     fill="none" stroke-width="0.76" stroke="#2e3434" />
  <path
     d="M 3.0648009,7.6862081 H 12.98825"
     fill="none" stroke-width="0.76" stroke="#2e3434" />
  <path
     d="M 3.0648009,5.0145101 H 12.98825"
     fill="none" stroke-width="0.76" stroke="#2e3434" />
  <path
     d="M 3.0648009,10.739577 H 12.98825"
     fill="none" stroke-width="0.76" stroke="#2e3434" />
  <rect
     width="1.2389985" height="3.4375429" x="10.842066" y="0.43195412" ry="0.35031039"
     fill="#2e3434" />
</svg>
