<?xml version="1.0" encoding="UTF-8" standalone="no"?>
<svg
   height="16px"
   viewBox="0 0 16 16"
   width="16px"
   version="1.1"
   id="svg4"
   sodipodi:docname="icon-windows.svg"
   xml:space="preserve"
   inkscape:version="1.2.2 (b0a8486541, 2022-12-01)"
   xmlns:inkscape="http://www.inkscape.org/namespaces/inkscape"
   xmlns:sodipodi="http://sodipodi.sourceforge.net/DTD/sodipodi-0.dtd"
   xmlns="http://www.w3.org/2000/svg"
   xmlns:svg="http://www.w3.org/2000/svg"><defs
     id="defs8" /><sodipodi:namedview
     id="namedview6"
     pagecolor="#ffffff"
     bordercolor="#000000"
     borderopacity="0.25"
     inkscape:showpageshadow="2"
     inkscape:pageopacity="0.0"
     inkscape:pagecheckerboard="0"
     inkscape:deskcolor="#d1d1d1"
     showgrid="false"
     inkscape:zoom="39.093215"
     inkscape:cx="4.6299594"
     inkscape:cy="9.3750284"
     inkscape:window-width="1916"
     inkscape:window-height="2140"
     inkscape:window-x="1920"
     inkscape:window-y="0"
     inkscape:window-maximized="1"
     inkscape:current-layer="svg4" /><path
     style="fill:#2e3436;fill-opacity:1;stroke-width:0.0156408"
     d="M 13.517308,14.215355 C 12.685512,14.096651 12.048848,14.007326 9.4037576,13.638222 8.4144723,13.500174 7.5892207,13.383681 7.5698651,13.379349 l -0.035192,-0.0079 V 10.868062 8.3646633 l 2.6706789,0.00926 c 1.468874,0.00509 2.996205,0.013483 3.39407,0.018648 l 0.723391,0.00939 v 2.9620957 c 0,2.811313 -0.0014,2.962001 -0.02738,2.960261 -0.01506,-10e-4 -0.365214,-0.05004 -0.778133,-0.108974 z M 6.4867346,13.230229 C 6.030603,13.164333 5.3012359,13.061809 3.2725348,12.778423 2.5327215,12.67508 1.9010004,12.586271 1.8687102,12.581071 l -0.058709,-0.0095 0.00397,-2.113549 0.00397,-2.1135491 1.7674188,0.00355 c 0.9720804,0.00196 2.1210981,0.00805 2.5533728,0.013539 l 0.7859539,0.00998 v 2.4611341 c 0,1.353623 -0.00528,2.460289 -0.01173,2.459255 -0.00645,-10e-4 -0.1982481,-0.02882 -0.4262138,-0.06175 z M 1.8139662,5.7146639 1.8179335,3.6202518 2.0447262,3.5863371 C 2.1694622,3.5676841 2.5847274,3.5062442 2.9675378,3.4498041 3.3503482,3.3933638 4.3814729,3.2413529 5.2589259,3.1120016 6.136379,2.9826503 6.8701315,2.8732149 6.889487,2.8688116 l 0.035192,-0.00801 V 5.3245415 7.7882773 H 5.8011237 c -0.6179553,0 -1.7687583,0.00468 -2.5573399,0.0104 L 1.8099989,7.809076 Z M 7.5346731,5.2760826 V 2.7750107 L 10.486888,2.3387458 c 1.623719,-0.2399456 3.14929,-0.4655273 3.39016,-0.5012928 l 0.437944,-0.065028 0.004,2.9870315 c 0.0022,1.6428672 0.0022,2.9887403 0,2.9908287 -0.0022,0.00209 -1.529522,0.00899 -3.39411,0.015333 l -3.3901596,0.011536 z"
     id="path180" /></svg>
