<?xml version="1.0" encoding="UTF-8" standalone="no"?>
<!-- Created with Inkscape (http://www.inkscape.org/) -->

<svg
   width="229"
   height="96"
   viewBox="0 0 60.589582 25.4"
   version="1.1"
   id="svg5"
   xml:space="preserve"
   inkscape:version="1.2.2 (b0a8486541, 2022-12-01)"
   sodipodi:docname="its_logo.svg"
   xmlns:inkscape="http://www.inkscape.org/namespaces/inkscape"
   xmlns:sodipodi="http://sodipodi.sourceforge.net/DTD/sodipodi-0.dtd"
   xmlns="http://www.w3.org/2000/svg"
   xmlns:svg="http://www.w3.org/2000/svg"><sodipodi:namedview
     id="namedview7"
     pagecolor="#ffffff"
     bordercolor="#000000"
     borderopacity="0.25"
     inkscape:showpageshadow="2"
     inkscape:pageopacity="0.0"
     inkscape:pagecheckerboard="0"
     inkscape:deskcolor="#d1d1d1"
     inkscape:document-units="mm"
     showgrid="false"
     inkscape:zoom="3.1466292"
     inkscape:cx="192.11034"
     inkscape:cy="95.81682"
     inkscape:window-width="1916"
     inkscape:window-height="1060"
     inkscape:window-x="1920"
     inkscape:window-y="1080"
     inkscape:window-maximized="1"
     inkscape:current-layer="layer1" /><defs
     id="defs2" /><g
     inkscape:label="Layer 1"
     inkscape:groupmode="layer"
     id="layer1"><path
       style="fill:#000080;stroke-width:0.352778"
       d="M 27.774393,16.593285 V 7.7738461 h 2.998611 2.998611 v 8.8194389 8.81945 h -2.998611 -2.998611 z m 13.271253,8.11404 c -0.558934,-0.17411 -1.412832,-0.68194 -1.897549,-1.1285 -1.713022,-1.57818 -1.848704,-2.43956 -1.848704,-11.73671 V 3.1877361 h 2.645834 2.645833 v 2.46944 2.46945 h 1.940278 1.940278 v 2.1166589 2.11667 H 44.531338 42.59106 l 0.0054,3.26319 c 0.0058,3.48896 0.101346,3.81717 1.294324,4.44511 1.196117,0.62959 10.139158,0.54583 10.675133,-0.1 0.471558,-0.56819 -0.215381,-1.15514 -2.449858,-2.09326 -2.124319,-0.89187 -3.272339,-2.41064 -3.429551,-4.53712 -0.103843,-1.40456 0.02984,-2.12589 0.54604,-2.94645 1.134954,-1.8041189 2.611413,-2.2648189 7.258358,-2.2648189 h 4.091826 v 2.1166589 2.11667 l -2.91042,0.005 c -4.6713,0.009 -4.976378,0.73441 -1.159926,2.75929 2.981406,1.58184 3.838086,2.65261 3.806266,4.75751 -0.0286,1.89265 -0.77598,3.43487 -2.09914,4.33166 -0.8856,0.60023 -1.77542,0.67703 -8.572894,0.73992 -4.171598,0.0386 -8.042032,-0.0723 -8.60097,-0.24641 z M 1.0791647,5.5182261 c -0.77147493,-0.66359 -0.98179291,-1.14877 -0.98179291,-2.26487 0,-2.80713993 2.62533691,-4.07047097 5.02094691,-2.41611996 3.732703,2.57771996 6.0773563,2.60413996 9.7407193,0.10978 0.754681,-0.51384997 1.724715,-0.93428001 2.155632,-0.93428001 0.430918,0 1.400952,0.42043004 2.155633,0.93428001 3.663363,2.49435996 6.008016,2.46793996 9.740719,-0.10978 2.39561,-1.65435101 5.020947,-0.39101997 5.020947,2.41611996 0,1.1161 -0.210319,1.60128 -0.981794,2.26487 -1.302245,1.12015 -2.647959,1.06566 -4.362914,-0.17664 -3.938408,-2.85297 -5.556487,-2.86574 -9.06346,-0.0715 -1.807804,1.44037 -3.210457,1.44037 -5.018261,0 -3.506973,-2.7942 -5.1250519,-2.78143 -9.0634603,0.0715 -1.714955,1.2423 -3.060669,1.29679 -4.362915,0.17664 z"
       id="path179" /></g></svg>
