<?xml version="1.0" encoding="UTF-8"?>
<svg height="16px" viewBox="0 0 16 16" width="16px" xmlns="http://www.w3.org/2000/svg">
  <path
     d="M 2.6171875 1.0683594 A 1.5429633 1.5429633 0 0 0 1.0742188 2.6113281 A 1.5429633 1.5429633 0 0 0 2.6171875 4.1542969 A 1.5429633 1.5429633 0 0 0 4.1601562 2.6113281 A 1.5429633 1.5429633 0 0 0 2.6171875 1.0683594 z M 5.2304688 1.3730469 L 5.2304688 3.5449219 L 14.994141 3.5449219 L 14.994141 1.3730469 L 5.2304688 1.3730469 z M 2.640625 4.8222656 A 1.5429633 1.5429633 0 0 0 1.0976562 6.3652344 A 1.5429633 1.5429633 0 0 0 2.640625 7.9082031 A 1.5429633 1.5429633 0 0 0 4.1835938 6.3652344 A 1.5429633 1.5429633 0 0 0 2.640625 4.8222656 z M 5.2539062 5.1269531 L 5.2539062 7.2988281 L 15.017578 7.2988281 L 15.017578 5.1269531 L 5.2539062 5.1269531 z M 2.6171875 8.6445312 A 1.5429633 1.5429633 0 0 0 1.0742188 10.1875 A 1.5429633 1.5429633 0 0 0 2.6171875 11.730469 A 1.5429633 1.5429633 0 0 0 4.1601562 10.1875 A 1.5429633 1.5429633 0 0 0 2.6171875 8.6445312 z M 5.2304688 8.9472656 L 5.2304688 11.119141 L 14.994141 11.119141 L 14.994141 8.9472656 L 5.2304688 8.9472656 z M 2.640625 12.398438 A 1.5429633 1.5429633 0 0 0 1.0976562 13.941406 A 1.5429633 1.5429633 0 0 0 2.640625 15.484375 A 1.5429633 1.5429633 0 0 0 4.1835938 13.941406 A 1.5429633 1.5429633 0 0 0 2.640625 12.398438 z M 5.2539062 12.701172 L 5.2539062 14.873047 L 15.017578 14.873047 L 15.017578 12.701172 L 5.2539062 12.701172 z " fill="#2e3434" />
</svg>
