<?xml version="1.0" encoding="UTF-8"?>
<svg height="16px" viewBox="0 0 16 16" width="16px" xmlns="http://www.w3.org/2000/svg">
  <path
     d="M 8.0043203,0.17492778 A 7.7687784,7.7687784 0 0 0 0.23477403,7.944474 7.7687784,7.7687784 0 0 0 8.0043203,15.71402 7.7687784,7.7687784 0 0 0 15.773867,7.944474 7.7687784,7.7687784 0 0 0 8.0043203,0.17492778 Z m 0,1.55492732 A 6.2150229,6.2150229 0 0 1 14.218939,7.944474 6.2150229,6.2150229 0 0 1 8.0043203,14.159094 6.2150229,6.2150229 0 0 1 1.7897012,7.944474 6.2150229,6.2150229 0 0 1 8.0043203,1.7298551 Z" fill="#2e3434" />
  <path
     d="M 8.0040261,7.9440013 10.334659,10.274635" stroke="#2e3434" stroke-width="2.7"
     style="fill:none;stroke-linecap:round;" />
  <path
     d="M 8.0040261,7.5555623 V 3.2827344"  stroke="#2e3434" stroke-width="2.7"
     style="fill:none;stroke-linecap:round;" />
</svg>
