<?xml version="1.0" encoding="UTF-8"?>
<svg height="16px" viewBox="0 0 16 16" width="16px" xmlns="http://www.w3.org/2000/svg">
  <path
     d="M 6.5039062 0.1484375 A 1.4301469 1.4301469 0 0 0 5.0742188 1.578125 A 1.4301469 1.4301469 0 0 0 6.5039062 3.0078125 A 1.4301469 1.4301469 0 0 0 6.5761719 3.0019531 L 7.0742188 5.7792969 A 2.3692157 2.3692157 0 0 0 6.9355469 5.8535156 L 3.59375 3.9941406 A 0.88946998 0.88946998 0 0 0 3.6132812 3.8222656 A 0.88946998 0.88946998 0 0 0 2.7226562 2.9335938 A 0.88946998 0.88946998 0 0 0 1.8339844 3.8222656 A 0.88946998 0.88946998 0 0 0 2.7226562 4.7128906 A 0.88946998 0.88946998 0 0 0 3.1777344 4.5859375 L 5.9082031 7.1015625 A 2.3692157 2.3692157 0 0 0 5.7675781 7.890625 A 2.3692157 2.3692157 0 0 0 5.7910156 8.2167969 L 4.1445312 9.7988281 A 2.2265809 2.2265809 0 0 0 2.7402344 9.2988281 A 2.2265809 2.2265809 0 0 0 0.51367188 11.525391 A 2.2265809 2.2265809 0 0 0 2.7402344 13.751953 A 2.2265809 2.2265809 0 0 0 4.9667969 11.525391 A 2.2265809 2.2265809 0 0 0 4.8222656 10.738281 L 6.8984375 9.9082031 A 2.3692157 2.3692157 0 0 0 7.3789062 10.130859 L 6.7792969 13.769531 A 0.90439117 0.90439117 0 0 0 5.9414062 14.669922 A 0.90439117 0.90439117 0 0 0 6.8457031 15.574219 A 0.90439117 0.90439117 0 0 0 7.75 14.669922 A 0.90439117 0.90439117 0 0 0 7.2304688 13.849609 L 8.1171875 10.257812 A 2.3692157 2.3692157 0 0 0 8.1367188 10.259766 A 2.3692157 2.3692157 0 0 0 8.8671875 10.140625 L 10.470703 11.169922 A 2.6181154 2.6181154 0 0 0 10.050781 12.591797 A 2.6181154 2.6181154 0 0 0 12.669922 15.210938 A 2.6181154 2.6181154 0 0 0 15.287109 12.591797 A 2.6181154 2.6181154 0 0 0 12.669922 9.9746094 A 2.6181154 2.6181154 0 0 0 11.330078 10.349609 L 10.423828 8.4902344 A 2.3692157 2.3692157 0 0 0 10.505859 7.890625 A 2.3692157 2.3692157 0 0 0 10.417969 7.2617188 L 12.492188 5.765625 A 1.8909068 1.8909068 0 0 0 13.960938 6.4707031 A 1.8909068 1.8909068 0 0 0 15.851562 4.5800781 A 1.8909068 1.8909068 0 0 0 13.960938 2.6894531 A 1.8909068 1.8909068 0 0 0 12.070312 4.5800781 A 1.8909068 1.8909068 0 0 0 12.191406 5.2324219 L 9.4511719 5.9199219 A 2.3692157 2.3692157 0 0 0 8.7832031 5.6132812 L 7.3144531 2.7539062 A 1.4301469 1.4301469 0 0 0 7.9335938 1.578125 A 1.4301469 1.4301469 0 0 0 6.5039062 0.1484375 z " fill="#2e3434" />
</svg>
